<?xml version="1.0" encoding="UTF-8" standalone="no"?>
<svg
   width="100%"
   height="100%"
   viewBox="0 0 200 70"
   version="1.1"
   xml:space="preserve"
   style="fill-rule:evenodd;clip-rule:evenodd;stroke-linejoin:round;stroke-miterlimit:2;"
   id="svg4"
   sodipodi:docname="cayden_lauritzen_portfolio_logo.svg"
   inkscape:version="1.3.2 (091e20e, 2023-11-25, custom)"
   xmlns:inkscape="http://www.inkscape.org/namespaces/inkscape"
   xmlns:sodipodi="http://sodipodi.sourceforge.net/DTD/sodipodi-0.dtd"
   xmlns="http://www.w3.org/2000/svg"
   xmlns:svg="http://www.w3.org/2000/svg"><defs
   id="defs4" /><sodipodi:namedview
   id="namedview4"
   pagecolor="#ffffff"
   bordercolor="#666666"
   borderopacity="1.0"
   inkscape:showpageshadow="2"
   inkscape:pageopacity="0.0"
   inkscape:pagecheckerboard="0"
   inkscape:deskcolor="#d1d1d1"
   showgrid="false"
   inkscape:zoom="7.015"
   inkscape:cx="100"
   inkscape:cy="36.350677"
   inkscape:window-width="1920"
   inkscape:window-height="1002"
   inkscape:window-x="1699"
   inkscape:window-y="-8"
   inkscape:window-maximized="1"
   inkscape:current-layer="svg4" />
    <g
   id="Background"
   transform="matrix(1.01942,0,0,1.0534,-3.98058,-3.95146)">
        <rect
   x="-1"
   y="-1"
   width="206"
   height="75"
   style="fill:rgb(38,38,38);"
   id="rect1" />
    </g>
    <g
   transform="matrix(0.795202,0,0,0.795202,-3.4639,0.588549)"
   id="g1">
        <path
   d="m 27.032,39.597 q 0,-2.448 1.104,-4.392 1.104,-1.968 3,-3.072 1.92,-1.104 4.248,-1.104 2.736,0 4.776,1.32 2.04,1.32 2.976,3.744 H 40.52 q -0.696,-1.512 -2.016,-2.328 -1.296,-0.816 -3.12,-0.816 -1.752,0 -3.144,0.816 -1.392,0.816 -2.184,2.328 -0.792,1.488 -0.792,3.504 0,1.992 0.792,3.504 0.792,1.488 2.184,2.304 1.392,0.816 3.144,0.816 1.824,0 3.12,-0.792 1.32,-0.816 2.016,-2.328 h 2.616 q -0.936,2.4 -2.976,3.72 -2.04,1.296 -4.776,1.296 -2.328,0 -4.248,-1.08 -1.896,-1.104 -3,-3.048 -1.104,-1.944 -1.104,-4.392 z m 18.527985,1.752 q 0,-2.016 0.816,-3.528 0.816,-1.536 2.232,-2.376 1.44,-0.84 3.192,-0.84 1.728,0 3,0.744 1.272,0.744 1.896,1.872 v -2.4 h 2.208 v 13.152 h -2.208 v -2.448 q -0.648,1.152 -1.944,1.92 -1.272,0.744 -2.976,0.744 -1.752,0 -3.168,-0.864 -1.416,-0.864 -2.232,-2.424 -0.816,-1.56 -0.816,-3.552 z m 11.136,0.024 q 0,-1.488 -0.6,-2.592 -0.6,-1.104 -1.632,-1.68 -1.008,-0.6 -2.232,-0.6 -1.224,0 -2.232,0.576 -1.008,0.576 -1.608,1.68 -0.6,1.104 -0.6,2.592 0,1.512 0.6,2.64 0.6,1.104 1.608,1.704 1.008,0.576 2.232,0.576 1.224,0 2.232,-0.576 1.032,-0.6 1.632,-1.704 0.6,-1.128 0.6,-2.616 z m 17.232014,-6.552 -7.92,19.344 h -2.256 l 2.592,-6.336 -5.304,-13.008 h 2.424 l 4.128,10.656 4.08,-10.656 z m 1.367993,6.528 q 0,-2.016 0.816,-3.528 0.816,-1.536 2.232,-2.376 1.44,-0.84 3.216,-0.84 1.536,0 2.856,0.72 1.32,0.696 2.016,1.848 v -6.96 h 2.208 v 17.76 h -2.208 v -2.472 q -0.648,1.176 -1.92,1.944 -1.272,0.744 -2.976,0.744 -1.752,0 -3.192,-0.864 -1.416,-0.864 -2.232,-2.424 -0.816,-1.56 -0.816,-3.552 z m 11.136,0.024 q 0,-1.488 -0.6,-2.592 -0.6,-1.104 -1.632,-1.68 -1.008,-0.6 -2.232,-0.6 -1.224,0 -2.232,0.576 -1.008,0.576 -1.608,1.68 -0.6,1.104 -0.6,2.592 0,1.512 0.6,2.64 0.6,1.104 1.608,1.704 1.008,0.576 2.232,0.576 1.224,0 2.232,-0.576 1.032,-0.6 1.632,-1.704 0.6,-1.128 0.6,-2.616 z m 17.904018,-0.48 q 0,0.624 -0.072,1.32 H 93.752007 q 0.12,1.944 1.32,3.048 1.224,1.08 2.952,1.08 1.416,0 2.352003,-0.648 0.96,-0.672 1.344,-1.776 h 2.352 q -0.528,1.896 -2.112,3.096 -1.584,1.176 -3.936003,1.176 -1.872,0 -3.36,-0.84 -1.464,-0.84 -2.304,-2.376 -0.84,-1.56 -0.84,-3.6 0,-2.04 0.816,-3.576 0.816,-1.536 2.28,-2.352 1.488,-0.84 3.408,-0.84 1.872,0 3.312003,0.816 1.44,0.816 2.208,2.256 0.792,1.416 0.792,3.216 z m -2.256,-0.456 q 0,-1.248 -0.552,-2.136 -0.552,-0.912 -1.512,-1.368 -0.936003,-0.48 -2.088003,-0.48 -1.656,0 -2.832,1.056 -1.152,1.056 -1.32,2.928 z m 11.54402,-5.856 q 2.4,0 3.888,1.464 1.488,1.44 1.488,4.176 v 7.752 h -2.16 v -7.44 q 0,-1.968 -0.984,-3 -0.984,-1.056 -2.688,-1.056 -1.728,0 -2.76,1.08 -1.008,1.08 -1.008,3.144 v 7.272 h -2.184 V 34.821 h 2.184 v 1.872 q 0.648,-1.008 1.752,-1.56 1.128,-0.552 2.472,-0.552 z m 17.54399,11.616 h 5.856 v 1.776 h -8.04 V 31.245 h 2.184 z m 7.36798,-4.848 q 0,-2.016 0.816,-3.528 0.816,-1.536 2.232,-2.376 1.44,-0.84 3.192,-0.84 1.728,0 3,0.744 1.272,0.744 1.896,1.872 v -2.4 h 2.208 v 13.152 h -2.208 v -2.448 q -0.648,1.152 -1.944,1.92 -1.272,0.744 -2.976,0.744 -1.752,0 -3.168,-0.864 -1.416,-0.864 -2.232,-2.424 -0.816,-1.56 -0.816,-3.552 z m 11.136,0.024 q 0,-1.488 -0.6,-2.592 -0.6,-1.104 -1.632,-1.68 -1.008,-0.6 -2.232,-0.6 -1.224,0 -2.232,0.576 -1.008,0.576 -1.608,1.68 -0.6,1.104 -0.6,2.592 0,1.512 0.6,2.64 0.6,1.104 1.608,1.704 1.008,0.576 2.232,0.576 1.224,0 2.232,-0.576 1.032,-0.6 1.632,-1.704 0.6,-1.128 0.6,-2.616 z m 17.56801,-6.552 v 13.152 h -2.184 v -1.944 q -0.624,1.008 -1.752,1.584 -1.104,0.552 -2.448,0.552 -1.536,0 -2.76,-0.624 -1.224,-0.648 -1.944,-1.92 -0.696,-1.272 -0.696,-3.096 v -7.704 h 2.16 v 7.416 q 0,1.944 0.984,3 0.984,1.032 2.688,1.032 1.752,0 2.76,-1.08 1.008,-1.08 1.008,-3.144 v -7.224 z m 5.87999,2.136 q 0.576,-1.128 1.632,-1.752 1.08,-0.624 2.616,-0.624 v 2.256 h -0.576 q -3.672,0 -3.672,3.984 v 7.152 h -2.184 V 34.821 h 2.184 z m 7.89598,-4.272 q -0.624,0 -1.056,-0.432 -0.432,-0.432 -0.432,-1.056 0,-0.624 0.432,-1.056 0.432,-0.432 1.056,-0.432 0.6,0 1.008,0.432 0.432,0.432 0.432,1.056 0,0.624 -0.432,1.056 -0.408,0.432 -1.008,0.432 z m 1.056,2.136 v 13.152 h -2.184 V 34.821 Z m 6.384,1.8 v 7.752 q 0,0.96 0.408,1.368 0.408,0.384 1.416,0.384 h 1.608 v 1.848 h -1.968 q -1.824,0 -2.736,-0.84 -0.912,-0.84 -0.912,-2.76 v -7.752 h -1.704 v -1.8 h 1.704 v -3.312 h 2.184 v 3.312 h 3.432 v 1.8 z m 7.70401,9.552 h 6.456 v 1.8 h -8.952 v -1.8 l 6.384,-9.576 h -6.336 v -1.776 h 8.856 v 1.776 z m 21.288,-5.28 q 0,0.624 -0.072,1.32 h -10.512 q 0.12,1.944 1.32,3.048 1.224,1.08 2.952,1.08 1.416,0 2.352,-0.648 0.96,-0.672 1.344,-1.776 h 2.352 q -0.528,1.896 -2.112,3.096 -1.584,1.176 -3.936,1.176 -1.872,0 -3.36,-0.84 -1.464,-0.84 -2.304,-2.376 -0.84,-1.56 -0.84,-3.6 0,-2.04 0.816,-3.576 0.816,-1.536 2.28,-2.352 1.488,-0.84 3.408,-0.84 1.872,0 3.312,0.816 1.44,0.816 2.208,2.256 0.792,1.416 0.792,3.216 z m -2.256,-0.456 q 0,-1.248 -0.552,-2.136 -0.552,-0.912 -1.512,-1.368 -0.936,-0.48 -2.088,-0.48 -1.656,0 -2.832,1.056 -1.152,1.056 -1.32,2.928 z m 11.54402,-5.856 q 2.4,0 3.888,1.464 1.488,1.44 1.488,4.176 v 7.752 h -2.16 v -7.44 q 0,-1.968 -0.984,-3 -0.984,-1.056 -2.688,-1.056 -1.728,0 -2.76,1.08 -1.008,1.08 -1.008,3.144 v 7.272 h -2.184 V 34.821 h 2.184 v 1.872 q 0.648,-1.008 1.752,-1.56 1.128,-0.552 2.472,-0.552 z"
   id="text1"
   style="font-size:24px;font-family:Poppins-Regular, Poppins;fill:#ff941a"
   aria-label="Cayden Lauritzen" />
    </g>
    <g
   transform="matrix(2.21916,0,0,4.16603,-59.9221,-128.207)"
   id="g2">
        <path
   d="m 33.8,44.709 -5.784,-5.52 5.784,-5.496 h 2.76 l -5.808,5.496 5.808,5.52 z"
   id="text2"
   style="font-size:24px;font-family:Poppins-Regular, Poppins;fill:#7af57c"
   aria-label="&lt;" />
    </g>
    <g
   transform="matrix(-2.21916,0,0,4.16603,259.383,-128.207)"
   id="g3">
        <path
   d="m 33.8,44.709 -5.784,-5.52 5.784,-5.496 h 2.76 l -5.808,5.496 5.808,5.52 z"
   id="text3"
   style="font-size:24px;font-family:Poppins-Regular, Poppins;fill:#7af57c"
   aria-label="&lt;" />
    </g>
    <g
   transform="matrix(0.480897,0,0,0.480897,16.3446,28.875)"
   id="g4">
        <path
   d="m 37.304,31.245 v 1.776 h -7.272 v 5.64 h 5.904 v 1.776 h -5.904 v 7.536 H 27.848 V 31.245 Z m 14.303993,3.576 v 13.152 h -2.184 v -1.944 q -0.624,1.008 -1.752,1.584 -1.104,0.552 -2.448,0.552 -1.536,0 -2.76,-0.624 -1.224,-0.648 -1.944,-1.92 -0.696,-1.272 -0.696,-3.096 v -7.704 h 2.16 v 7.416 q 0,1.944 0.984,3 0.984,1.032 2.688,1.032 1.752,0 2.76,-1.08 1.008,-1.08 1.008,-3.144 v -7.224 z m 5.879985,-4.608 v 17.76 h -2.184 v -17.76 z m 5.904007,0 v 17.76 h -2.184 v -17.76 z m 15.432012,17.928 q -1.656,0 -2.976,-0.576 -1.296,-0.6 -2.04,-1.632 -0.744,-1.056 -0.768,-2.424 h 2.328 q 0.12,1.176 0.96,1.992 0.864,0.792 2.496,0.792 1.56,0 2.448,-0.768 0.912,-0.792 0.912,-2.016 0,-0.96 -0.528,-1.56 -0.528,-0.6 -1.32,-0.912 -0.792,-0.312 -2.136,-0.672 -1.656,-0.432 -2.664,-0.864 -0.984,-0.432 -1.704,-1.344 -0.696,-0.936 -0.696,-2.496 0,-1.368 0.696,-2.424 0.696,-1.056 1.944,-1.632 1.272,-0.576 2.904,-0.576 2.352,0 3.84,1.176 1.512,1.176 1.704,3.12 h -2.4 q -0.12,-0.96 -1.008,-1.68 -0.888,-0.744 -2.352,-0.744 -1.368,0 -2.232,0.72 -0.864,0.696 -0.864,1.968 0,0.912 0.504,1.488 0.528,0.576 1.272,0.888 0.768,0.288 2.136,0.672 1.656,0.456 2.664,0.912 1.008,0.432 1.728,1.368 0.72,0.912 0.72,2.496 0,1.224 -0.648,2.304 -0.648,1.08 -1.92,1.752 -1.272,0.672 -3,0.672 z m 11.447998,-11.52 v 7.752 q 0,0.96 0.408,1.368 0.408,0.384 1.416,0.384 h 1.608 v 1.848 h -1.968 q -1.824,0 -2.736,-0.84 -0.912,-0.84 -0.912,-2.76 v -7.752 h -1.704 v -1.8 h 1.704 v -3.312 h 2.184 v 3.312 h 3.432 v 1.8 z m 5.256007,4.728 q 0,-2.016 0.816,-3.528 0.816,-1.536 2.232,-2.376 1.439998,-0.84 3.191998,-0.84 1.728,0 3,0.744 1.272,0.744 1.896,1.872 v -2.4 h 2.208 v 13.152 h -2.208 v -2.448 q -0.648,1.152 -1.944,1.92 -1.272,0.744 -2.976,0.744 -1.751998,0 -3.167998,-0.864 -1.416,-0.864 -2.232,-2.424 -0.816,-1.56 -0.816,-3.552 z M 106.664,41.373 q 0,-1.488 -0.6,-2.592 -0.6,-1.104 -1.632,-1.68 -1.008,-0.6 -2.232,-0.6 -1.224,0 -2.231998,0.576 -1.008,0.576 -1.608,1.68 -0.6,1.104 -0.6,2.592 0,1.512 0.6,2.64 0.6,1.104 1.608,1.704 1.007998,0.576 2.231998,0.576 1.224,0 2.232,-0.576 1.032,-0.6 1.632,-1.704 0.6,-1.128 0.6,-2.616 z m 5.08802,0 q 0,-2.04 0.816,-3.552 0.816,-1.536 2.256,-2.376 1.464,-0.84 3.336,-0.84 2.424,0 3.984,1.176 1.584,1.176 2.088,3.264 h -2.352 q -0.336,-1.2 -1.32,-1.896 -0.96,-0.696 -2.4,-0.696 -1.872,0 -3.024,1.296 -1.152,1.272 -1.152,3.624 0,2.376 1.152,3.672 1.152,1.296 3.024,1.296 1.44,0 2.4,-0.672 0.96,-0.672 1.32,-1.92 h 2.352 q -0.528,2.016 -2.112,3.24 -1.584,1.2 -3.96,1.2 -1.872,0 -3.336,-0.84 -1.44,-0.84 -2.256,-2.376 -0.816,-1.536 -0.816,-3.6 z m 22.728,6.6 -5.16,-5.808 v 5.808 h -2.184 v -17.76 h 2.184 v 10.44 l 5.064,-5.832 h 3.048 l -6.192,6.552 6.216,6.6 z m 32.448,-16.728 -4.848,16.728 h -2.448 l -3.888,-13.464 -4.032,13.464 -2.424,0.024 -4.68,-16.752 h 2.328 l 3.648,14.184 4.032,-14.184 h 2.448 l 3.84,14.136 3.672,-14.136 z m 14.39999,9.648 q 0,0.624 -0.072,1.32 h -10.512 q 0.12,1.944 1.32,3.048 1.224,1.08 2.952,1.08 1.416,0 2.352,-0.648 0.96,-0.672 1.344,-1.776 h 2.352 q -0.528,1.896 -2.112,3.096 -1.584,1.176 -3.936,1.176 -1.872,0 -3.36,-0.84 -1.464,-0.84 -2.304,-2.376 -0.84,-1.56 -0.84,-3.6 0,-2.04 0.816,-3.576 0.816,-1.536 2.28,-2.352 1.488,-0.84 3.408,-0.84 1.872,0 3.312,0.816 1.44,0.816 2.208,2.256 0.792,1.416 0.792,3.216 z m -2.256,-0.456 q 0,-1.248 -0.552,-2.136 -0.552,-0.912 -1.512,-1.368 -0.936,-0.48 -2.088,-0.48 -1.656,0 -2.832,1.056 -1.152,1.056 -1.32,2.928 z m 7.32002,-3.168 q 0.672,-1.176 1.968,-1.92 1.296,-0.744 2.952,-0.744 1.776,0 3.192,0.84 1.416,0.84 2.232,2.376 0.816,1.512 0.816,3.528 0,1.992 -0.816,3.552 -0.816,1.56 -2.256,2.424 -1.416,0.864 -3.168,0.864 -1.704,0 -3,-0.744 -1.272,-0.744 -1.92,-1.896 v 2.424 h -2.184 v -17.76 h 2.184 z m 8.928,4.08 q 0,-1.488 -0.6,-2.592 -0.6,-1.104 -1.632,-1.68 -1.008,-0.576 -2.232,-0.576 -1.2,0 -2.232,0.6 -1.008,0.576 -1.632,1.704 -0.6,1.104 -0.6,2.568 0,1.488 0.6,2.616 0.624,1.104 1.632,1.704 1.032,0.576 2.232,0.576 1.224,0 2.232,-0.576 1.032,-0.6 1.632,-1.704 0.6,-1.128 0.6,-2.64 z m 16.72802,-10.104 q 2.736,0 4.728,1.032 2.016,1.008 3.072,2.904 1.08,1.896 1.08,4.464 0,2.568 -1.08,4.464 -1.056,1.872 -3.072,2.88 -1.992,0.984 -4.728,0.984 h -5.208 V 31.245 Z m 0,14.928 q 3.24,0 4.944,-1.704 1.704,-1.728 1.704,-4.824 0,-3.12 -1.728,-4.872 -1.704,-1.752 -4.92,-1.752 h -3.024 v 13.152 z m 23.76002,-5.28 q 0,0.624 -0.072,1.32 h -10.512 q 0.12,1.944 1.32,3.048 1.224,1.08 2.952,1.08 1.416,0 2.352,-0.648 0.96,-0.672 1.344,-1.776 h 2.352 q -0.528,1.896 -2.112,3.096 -1.584,1.176 -3.936,1.176 -1.872,0 -3.36,-0.84 -1.464,-0.84 -2.304,-2.376 -0.84,-1.56 -0.84,-3.6 0,-2.04 0.816,-3.576 0.816,-1.536 2.28,-2.352 1.488,-0.84 3.408,-0.84 1.872,0 3.312,0.816 1.44,0.816 2.208,2.256 0.792,1.416 0.792,3.216 z m -2.256,-0.456 q 0,-1.248 -0.552,-2.136 -0.552,-0.912 -1.512,-1.368 -0.936,-0.48 -2.088,-0.48 -1.656,0 -2.832,1.056 -1.152,1.056 -1.32,2.928 z m 10.03202,5.52 4.08,-11.136 h 2.328 l -5.16,13.152 h -2.544 l -5.16,-13.152 h 2.352 z m 20.56802,-5.064 q 0,0.624 -0.072,1.32 h -10.512 q 0.12,1.944 1.32,3.048 1.224,1.08 2.952,1.08 1.416,0 2.352,-0.648 0.96,-0.672 1.344,-1.776 h 2.352 q -0.528,1.896 -2.112,3.096 -1.584,1.176 -3.936,1.176 -1.872,0 -3.36,-0.84 -1.464,-0.84 -2.304,-2.376 -0.84,-1.56 -0.84,-3.6 0,-2.04 0.816,-3.576 0.816,-1.536 2.28,-2.352 1.488,-0.84 3.408,-0.84 1.872,0 3.312,0.816 1.44,0.816 2.208,2.256 0.792,1.416 0.792,3.216 z m -2.256,-0.456 q 0,-1.248 -0.552,-2.136 -0.552,-0.912 -1.512,-1.368 -0.936,-0.48 -2.088,-0.48 -1.656,0 -2.832,1.056 -1.152,1.056 -1.32,2.928 z m 7.32002,-10.224 v 17.76 h -2.184 v -17.76 z m 9.456,17.976 q -1.848,0 -3.36,-0.84 -1.488,-0.84 -2.352,-2.376 -0.84,-1.56 -0.84,-3.6 0,-2.016 0.864,-3.552 0.888,-1.56 2.4,-2.376 1.512,-0.84 3.384,-0.84 1.872,0 3.384,0.84 1.512,0.816 2.376,2.352 0.888,1.536 0.888,3.576 0,2.04 -0.912,3.6 -0.888,1.536 -2.424,2.376 -1.536,0.84 -3.408,0.84 z m 0,-1.92 q 1.176,0 2.208,-0.552 1.032,-0.552 1.656,-1.656 0.648,-1.104 0.648,-2.688 0,-1.584 -0.624,-2.688 -0.624,-1.104 -1.632,-1.632 -1.008,-0.552 -2.184,-0.552 -1.2,0 -2.208,0.552 -0.984,0.528 -1.584,1.632 -0.6,1.104 -0.6,2.688 0,1.608 0.576,2.712 0.6,1.104 1.584,1.656 0.984,0.528 2.16,0.528 z m 11.80799,-9.024 q 0.648,-1.128 1.92,-1.872 1.296,-0.768 3,-0.768 1.752,0 3.168,0.84 1.44,0.84 2.256,2.376 0.816,1.512 0.816,3.528 0,1.992 -0.816,3.552 -0.816,1.56 -2.256,2.424 -1.416,0.864 -3.168,0.864 -1.68,0 -2.976,-0.744 -1.272,-0.768 -1.944,-1.896 v 8.664 h -2.184 V 34.821 h 2.184 z m 8.928,4.104 q 0,-1.488 -0.6,-2.592 -0.6,-1.104 -1.632,-1.68 -1.008,-0.576 -2.232,-0.576 -1.2,0 -2.232,0.6 -1.008,0.576 -1.632,1.704 -0.6,1.104 -0.6,2.568 0,1.488 0.6,2.616 0.624,1.104 1.632,1.704 1.032,0.576 2.232,0.576 1.224,0 2.232,-0.576 1.032,-0.6 1.632,-1.704 0.6,-1.128 0.6,-2.64 z m 17.112,-0.456 q 0,0.624 -0.072,1.32 h -10.512 q 0.12,1.944 1.32,3.048 1.224,1.08 2.952,1.08 1.416,0 2.352,-0.648 0.96,-0.672 1.344,-1.776 h 2.352 q -0.528,1.896 -2.112,3.096 -1.584,1.176 -3.936,1.176 -1.872,0 -3.36,-0.84 -1.464,-0.84 -2.304,-2.376 -0.84,-1.56 -0.84,-3.6 0,-2.04 0.816,-3.576 0.816,-1.536 2.28,-2.352 1.488,-0.84 3.408,-0.84 1.872,0 3.312,0.816 1.44,0.816 2.208,2.256 0.792,1.416 0.792,3.216 z m -2.256,-0.456 q 0,-1.248 -0.552,-2.136 -0.552,-0.912 -1.512,-1.368 -0.936,-0.48 -2.088,-0.48 -1.656,0 -2.832,1.056 -1.152,1.056 -1.32,2.928 z m 7.32003,-3.48 q 0.576,-1.128 1.632,-1.752 1.08,-0.624 2.616,-0.624 v 2.256 h -0.576 q -3.672,0 -3.672,3.984 v 7.152 h -2.184 V 34.821 h 2.184 z"
   id="text4"
   style="font-size:24px;font-family:Poppins-Regular, Poppins;fill:#89c2e6"
   aria-label="Full Stack Web Developer" />
    </g>
</svg>
