<?xml version="1.0" encoding="UTF-8"?>
<svg xmlns="http://www.w3.org/2000/svg" xmlns:xlink="http://www.w3.org/1999/xlink" width="30px" height="30px" viewBox="0 0 30 30" version="1.1">
<g id="surface1">
<path style=" stroke:none;fill-rule:nonzero;fill:rgb(100%,58.039216%,10.196078%);fill-opacity:1;" d="M 15 0 C 6.714844 0 0 6.714844 0 15 C 0 23.285156 6.714844 30 15 30 C 23.285156 30 30 23.285156 30 15 C 30 6.714844 23.285156 0 15 0 Z M 16.9375 17.773438 C 17.25 18.046875 17.492188 19 17.492188 19.441406 L 17.492188 23.324219 L 13.054688 23.324219 C 13.054688 23.324219 13.0625 22.007812 13.054688 21.105469 C 10.019531 21.757812 9.171875 19.441406 9.171875 19.441406 C 8.617188 18.328125 8.0625 17.773438 8.0625 17.773438 C 6.949219 17.117188 8.0625 17.21875 8.0625 17.21875 C 9.171875 17.21875 9.726562 18.328125 9.726562 18.328125 C 10.699219 19.984375 12.433594 19.71875 13.054688 19.441406 C 13.054688 18.886719 13.296875 18.046875 13.609375 17.773438 C 11.1875 17.503906 9.167969 16.109375 9.167969 13.335938 C 9.167969 10.558594 9.726562 10.003906 10.28125 9.449219 C 10.167969 9.175781 9.703125 8.164062 10.296875 6.675781 C 10.296875 6.675781 11.386719 6.675781 12.496094 8.339844 C 13.046875 7.789062 14.71875 7.785156 15.273438 7.785156 C 15.828125 7.785156 17.496094 7.789062 18.046875 8.339844 C 19.15625 6.675781 20.25 6.675781 20.25 6.675781 C 20.84375 8.164062 20.378906 9.175781 20.269531 9.449219 C 20.824219 10.003906 21.378906 10.558594 21.378906 13.335938 C 21.378906 16.109375 19.363281 17.503906 16.9375 17.773438 Z M 16.9375 17.773438 "/>
</g>
</svg>
