<?xml version="1.0" encoding="UTF-8"?>
<svg xmlns="http://www.w3.org/2000/svg" xmlns:xlink="http://www.w3.org/1999/xlink" width="30px" height="30px" viewBox="0 0 30 30" version="1.1">
<g id="surface1">
<path style=" stroke:none;fill-rule:nonzero;fill:rgb(100%,58.039216%,10.196078%);fill-opacity:1;" d="M 27.734375 -0.078125 C 28.957031 -0.078125 29.953125 0.890625 29.953125 2.085938 L 29.953125 27.761719 C 29.953125 28.957031 28.957031 29.929688 27.734375 29.929688 L 2.160156 29.929688 C 0.9375 29.929688 -0.0546875 28.957031 -0.0546875 27.761719 L -0.0546875 2.085938 C -0.0546875 0.890625 0.9375 -0.078125 2.160156 -0.078125 Z M 25.515625 25.488281 L 25.515625 17.636719 C 25.515625 13.78125 24.683594 10.816406 20.175781 10.816406 C 18.011719 10.816406 16.558594 12.003906 15.964844 13.128906 L 15.90625 13.128906 L 15.90625 11.171875 L 11.640625 11.171875 L 11.640625 25.488281 L 16.085938 25.488281 L 16.085938 18.40625 C 16.085938 16.539062 16.4375 14.730469 18.753906 14.730469 C 21.035156 14.730469 21.066406 16.867188 21.066406 18.527344 L 21.066406 25.488281 Z M 8.847656 11.171875 L 4.390625 11.171875 L 4.390625 25.488281 L 8.847656 25.488281 Z M 6.621094 4.050781 C 5.191406 4.050781 4.039062 5.207031 4.039062 6.632812 C 4.039062 8.058594 5.191406 9.214844 6.621094 9.214844 C 8.042969 9.214844 9.199219 8.058594 9.199219 6.632812 C 9.199219 5.207031 8.042969 4.050781 6.621094 4.050781 Z M 6.621094 4.050781 "/>
</g>
</svg>
