<?xml version="1.0" encoding="UTF-8"?>
<svg xmlns="http://www.w3.org/2000/svg" xmlns:xlink="http://www.w3.org/1999/xlink" width="30px" height="30px" viewBox="0 0 30 30" version="1.1">
<g id="surface1">
<path style=" stroke:none;fill-rule:evenodd;fill:rgb(100%,58.039216%,10.196078%);fill-opacity:1;" d="M 15 0 C 23.277344 0 30 6.722656 30 15 C 30 23.277344 23.277344 30 15 30 C 6.722656 30 0 23.277344 0 15 C 0 6.722656 6.722656 0 15 0 Z M 12.359375 22.976562 C 18.996094 22.976562 22.625 17.476562 22.625 12.710938 C 22.625 12.554688 22.625 12.398438 22.617188 12.246094 C 23.320312 11.738281 23.933594 11.101562 24.421875 10.375 C 23.777344 10.660156 23.082031 10.855469 22.347656 10.945312 C 23.097656 10.496094 23.664062 9.792969 23.933594 8.945312 C 23.238281 9.359375 22.46875 9.65625 21.644531 9.820312 C 20.984375 9.117188 20.050781 8.683594 19.011719 8.683594 C 17.019531 8.683594 15.402344 10.300781 15.402344 12.292969 C 15.402344 12.574219 15.433594 12.851562 15.5 13.113281 C 12.5 12.964844 9.84375 11.527344 8.0625 9.34375 C 7.757812 9.875 7.574219 10.496094 7.574219 11.152344 C 7.574219 12.402344 8.210938 13.511719 9.183594 14.15625 C 8.59375 14.140625 8.039062 13.976562 7.554688 13.707031 L 7.554688 13.75 C 7.554688 15.503906 8.796875 16.953125 10.449219 17.289062 C 10.148438 17.371094 9.828125 17.417969 9.5 17.417969 C 9.265625 17.417969 9.042969 17.394531 8.816406 17.351562 C 9.273438 18.785156 10.605469 19.828125 12.1875 19.855469 C 10.949219 20.824219 9.394531 21.398438 7.703125 21.398438 C 7.410156 21.398438 7.128906 21.382812 6.84375 21.347656 C 8.421875 22.378906 10.324219 22.976562 12.359375 22.976562 Z M 12.359375 22.976562 "/>
</g>
</svg>
